<?xml version="1.0" standalone="no"?>
<!DOCTYPE svg PUBLIC "-//W3C//DTD SVG 20010904//EN"
 "http://www.w3.org/TR/2001/REC-SVG-20010904/DTD/svg10.dtd">
<svg version="1.0" xmlns="http://www.w3.org/2000/svg"
 width="1024.000000pt" height="512.000000pt" viewBox="0 0 1024.000000 512.000000"
 preserveAspectRatio="xMidYMid meet">

<g transform="translate(0.000000,512.000000) scale(0.100000,-0.100000)"
fill="#000000" stroke="none">
<path d="M5063 3958 c-60 -66 -62 -136 -8 -263 37 -85 39 -96 39 -195 l1 -105
-60 -7 c-156 -20 -284 -85 -405 -207 -151 -152 -207 -300 -198 -525 5 -107 3
-126 -14 -161 -55 -110 -197 -258 -294 -305 -107 -52 -214 7 -214 118 0 58 33
92 89 92 32 0 44 -5 57 -25 28 -42 1 -95 -41 -79 -21 9 -19 32 5 39 21 7 27
39 9 50 -34 22 -96 -35 -85 -78 17 -68 92 -89 146 -39 55 48 38 142 -31 178
-98 50 -220 -45 -206 -162 6 -56 48 -120 92 -141 19 -9 35 -20 35 -23 0 -4
-17 -12 -37 -18 -88 -25 -164 -35 -263 -34 -247 2 -451 104 -530 266 -86 177
-40 396 95 457 68 31 166 17 201 -29 17 -21 18 -84 2 -100 -18 -18 -38 -14
-38 8 0 29 -30 38 -46 15 -18 -25 -18 -38 4 -65 13 -16 29 -22 56 -22 93 0
128 121 58 204 -34 41 -81 59 -152 59 -154 1 -261 -116 -277 -301 l-6 -66 -31
30 c-49 46 -111 69 -186 68 -138 -1 -255 -73 -370 -228 -146 -197 -231 -262
-398 -305 -144 -37 -320 -14 -457 59 -82 44 -158 127 -179 196 -26 82 -18 175
20 246 40 75 71 95 144 95 72 0 113 -30 108 -79 -3 -30 -28 -50 -28 -23 0 20
-29 30 -47 16 -22 -19 -12 -61 19 -78 39 -22 78 -6 101 42 35 71 -6 145 -96
172 -157 47 -291 -90 -291 -297 0 -65 5 -86 32 -141 41 -83 113 -155 191 -192
34 -16 61 -32 61 -35 0 -3 -82 -4 -183 -3 -100 1 -259 2 -353 2 -161 1 -173 2
-205 24 -83 56 -104 148 -48 211 54 62 134 56 160 -12 13 -34 -1 -66 -38 -84
-42 -20 -37 -43 10 -42 51 2 78 29 84 86 16 142 -164 203 -260 89 -92 -109
-22 -289 125 -321 70 -15 8323 -14 8382 1 107 27 183 149 156 250 -48 175
-300 168 -300 -9 0 -29 7 -45 28 -64 48 -47 102 -56 102 -18 0 11 -11 22 -30
28 -60 21 -63 90 -5 128 61 40 155 -26 155 -110 0 -86 -75 -156 -169 -157
-333 -4 -625 -3 -632 2 -6 3 16 20 48 37 80 42 149 114 186 191 86 180 -6 416
-173 445 -83 14 -179 -42 -195 -114 -9 -42 21 -102 58 -115 54 -18 110 40 77
81 -18 20 -41 17 -47 -6 -8 -32 -28 -17 -28 20 0 28 7 39 35 58 28 19 44 23
83 19 62 -5 94 -30 132 -98 27 -49 30 -63 30 -144 0 -81 -3 -95 -29 -143 -99
-178 -389 -276 -628 -212 -164 43 -264 119 -373 285 -116 175 -290 272 -439
244 -50 -9 -140 -59 -155 -86 -5 -10 -10 9 -14 53 -16 190 -122 306 -277 305
-32 0 -73 -6 -92 -14 -93 -39 -128 -166 -63 -227 32 -30 93 -30 117 0 22 27
22 40 4 65 -16 23 -46 14 -46 -15 0 -22 -20 -26 -38 -8 -16 16 -15 79 2 100
18 25 79 48 123 48 184 -1 278 -260 173 -476 -109 -224 -461 -327 -792 -232
-21 6 -38 14 -38 18 0 3 16 14 35 23 44 21 86 85 92 141 17 149 -174 239 -252
120 -10 -15 -17 -45 -17 -68 2 -104 146 -133 177 -36 14 43 -40 102 -79 87
-23 -9 -20 -48 4 -54 23 -6 27 -28 5 -37 -42 -16 -69 37 -41 79 13 20 25 25
57 25 56 0 89 -34 89 -92 0 -110 -110 -172 -213 -119 -102 52 -236 190 -292
301 -22 44 -23 51 -13 126 46 338 -182 668 -520 755 -41 10 -90 19 -109 19
l-33 0 0 101 c0 93 3 109 35 189 46 114 53 167 31 225 -10 25 -27 52 -39 60
-33 23 -90 19 -114 -7z m184 -634 c197 -40 357 -163 444 -339 51 -104 69 -180
69 -285 -1 -292 -188 -541 -468 -621 -93 -27 -243 -26 -342 2 -286 78 -485
356 -467 649 25 394 383 673 764 594z m-2327 -805 c24 -11 53 -28 64 -37 25
-23 66 -110 66 -143 0 -49 -66 -108 -105 -93 -19 8 -20 24 -1 24 20 0 29 16
21 40 -16 49 -95 25 -95 -29 0 -43 9 -60 41 -76 60 -31 131 -6 171 60 l20 35
27 -42 c55 -86 149 -153 276 -199 49 -17 42 -18 -475 -20 -289 -1 -565 -3
-615 -4 -49 -1 -96 0 -103 3 -7 2 20 27 60 54 94 64 130 98 186 178 109 154
175 214 275 251 68 24 131 23 187 -2z m4624 -13 c77 -38 142 -100 220 -210 75
-106 149 -178 228 -225 l53 -31 -115 -1 c-63 -1 -128 -2 -145 -2 -16 1 -248 2
-515 3 -478 1 -484 2 -435 19 127 46 221 113 276 199 l27 42 20 -35 c40 -66
111 -91 171 -60 32 16 41 33 41 76 0 54 -79 78 -95 29 -8 -24 1 -40 21 -40 19
0 18 -16 -1 -24 -37 -14 -105 43 -105 89 0 70 49 143 122 180 45 23 62 26 116
22 39 -3 82 -14 116 -31z m-2976 -228 c66 -90 161 -166 260 -208 29 -13 50
-25 47 -28 -3 -3 -124 -5 -268 -4 -144 0 -354 2 -467 2 l-205 1 50 18 c68 25
149 66 215 111 68 47 185 167 230 238 l34 53 32 -65 c18 -35 50 -88 72 -118z
m1247 124 c40 -64 158 -186 225 -232 66 -45 147 -86 215 -111 l50 -18 -250 -1
c-576 -5 -695 -5 -695 0 0 3 29 18 64 33 120 53 253 184 319 315 17 34 34 62
37 62 3 0 18 -21 35 -48z"/>
<path d="M5092 3128 c-29 -29 -3 -72 40 -66 19 2 23 9 23 38 0 30 -4 35 -25
38 -14 2 -31 -3 -38 -10z"/>
<path d="M4975 3090 c-9 -15 4 -30 26 -30 12 0 19 7 19 20 0 21 -33 29 -45 10z"/>
<path d="M5220 3080 c0 -16 5 -21 23 -18 12 2 22 10 22 18 0 8 -10 16 -22 18
-18 3 -23 -2 -23 -18z"/>
<path d="M4618 2919 c-10 -5 -18 -17 -18 -25 0 -13 8 -14 38 -9 l37 6 75 -226
c96 -291 92 -290 176 -33 34 103 65 195 69 205 4 12 29 -51 74 -187 91 -278
86 -279 180 8 64 199 79 232 107 232 2 0 4 -101 4 -225 0 -218 1 -225 20 -225
22 0 20 -23 24 295 l1 150 45 3 c100 8 150 -32 150 -117 0 -63 -33 -94 -106
-101 -46 -4 -60 -9 -62 -22 -3 -16 5 -18 55 -18 102 0 153 51 153 152 0 110
-53 148 -205 148 -91 0 -130 -9 -148 -34 -4 -6 -32 -90 -63 -186 -31 -96 -60
-179 -64 -183 -4 -5 -15 15 -24 45 -9 29 -38 121 -64 203 -41 126 -52 150 -70
153 -19 3 -27 -16 -90 -210 l-69 -213 -21 70 c-55 180 -112 339 -124 346 -18
12 -59 11 -80 -2z"/>
<path d="M4976 2282 c-9 -14 12 -35 28 -29 23 9 20 37 -3 37 -11 0 -22 -4 -25
-8z"/>
<path d="M5082 2273 c-15 -28 3 -63 31 -63 33 0 51 24 43 55 -5 20 -13 25 -36
25 -18 0 -33 -7 -38 -17z"/>
<path d="M5220 2275 c0 -21 30 -31 40 -14 11 17 3 29 -21 29 -10 0 -19 -7 -19
-15z"/>
<path d="M4926 3843 c-4 -9 0 -23 9 -32 13 -14 17 -14 32 1 13 14 14 20 3 32
-16 21 -36 20 -44 -1z"/>
<path d="M5263 3844 c-3 -8 2 -23 11 -32 14 -15 18 -15 31 -1 9 9 13 23 9 32
-8 21 -43 22 -51 1z"/>
<path d="M4856 3759 c-12 -18 -13 -27 -3 -53 10 -23 29 -39 79 -65 37 -18 71
-32 77 -30 16 6 -35 121 -64 147 -33 28 -69 28 -89 1z"/>
<path d="M5301 3751 c-26 -27 -73 -131 -65 -140 7 -8 126 45 144 64 28 30 35
69 15 89 -25 25 -64 20 -94 -13z"/>
<path d="M3400 2915 c0 -8 7 -15 15 -15 8 0 15 7 15 15 0 8 -7 15 -15 15 -8 0
-15 -7 -15 -15z"/>
<path d="M6810 2915 c0 -8 7 -15 15 -15 8 0 15 7 15 15 0 8 -7 15 -15 15 -8 0
-15 -7 -15 -15z"/>
<path d="M3471 2902 c-8 -15 -7 -23 4 -32 21 -18 47 -4 43 22 -4 29 -34 35
-47 10z"/>
<path d="M6727 2913 c-13 -12 -7 -44 8 -49 24 -10 47 14 34 37 -10 19 -30 25
-42 12z"/>
<path d="M3540 2836 c0 -9 7 -16 16 -16 9 0 14 5 12 12 -6 18 -28 21 -28 4z"/>
<path d="M6677 2843 c-12 -11 -8 -23 8 -23 8 0 15 7 15 15 0 16 -12 20 -23 8z"/>
<path d="M1722 2719 c2 -6 8 -10 13 -10 5 0 11 4 13 10 2 6 -4 11 -13 11 -9 0
-15 -5 -13 -11z"/>
<path d="M8492 2719 c2 -6 8 -10 13 -10 5 0 11 4 13 10 2 6 -4 11 -13 11 -9 0
-15 -5 -13 -11z"/>
<path d="M1764 2676 c-8 -21 3 -36 27 -36 15 0 20 6 17 22 -4 27 -35 37 -44
14z"/>
<path d="M8437 2684 c-4 -4 -7 -16 -7 -26 0 -14 6 -19 23 -16 14 2 22 10 22
23 0 20 -25 32 -38 19z"/>
<path d="M1805 2599 c-10 -15 3 -25 16 -12 7 7 7 13 1 17 -6 3 -14 1 -17 -5z"/>
<path d="M8416 2602 c-3 -6 -1 -14 5 -17 15 -10 25 3 12 16 -7 7 -13 7 -17 1z"/>
<path d="M4905 1662 c-106 -51 -153 -174 -106 -277 46 -103 180 -146 262 -86
16 12 31 21 34 21 3 0 5 -32 3 -72 -3 -66 -5 -73 -26 -78 -33 -7 -32 -24 1
-28 53 -6 57 6 57 169 0 126 -2 149 -15 149 -10 0 -15 -10 -15 -32 0 -75 -69
-134 -146 -125 -80 9 -144 83 -144 167 0 114 114 204 213 169 48 -16 64 -52
28 -62 -24 -6 -28 -22 -7 -30 26 -10 57 22 54 55 -6 65 -113 98 -193 60z"/>
<path d="M2180 1655 c-14 -17 0 -26 35 -22 17 2 27 -20 76 -168 75 -228 79
-229 145 -20 27 85 51 155 54 155 3 0 28 -69 56 -152 70 -212 72 -212 147 24
32 101 58 186 57 191 0 4 -6 7 -14 7 -9 0 -32 -56 -65 -160 -28 -88 -54 -160
-56 -160 -2 0 -27 72 -55 160 -67 210 -71 211 -134 8 -26 -84 -51 -156 -55
-161 -4 -4 -29 59 -55 140 -27 82 -53 154 -58 161 -14 17 -63 15 -78 -3z"/>
<path d="M2847 1652 c-33 -36 -12 -59 21 -25 16 16 17 5 20 -160 l2 -177 125
0 c103 0 125 3 125 15 0 11 -21 15 -107 17 l-108 3 -3 73 -3 72 76 0 c59 0 75
3 75 15 0 11 -17 15 -72 17 l-73 3 0 65 0 65 108 3 c86 2 107 6 107 17 0 13
-23 15 -138 15 -122 0 -141 -2 -155 -18z"/>
<path d="M3238 1659 c-10 -5 -18 -19 -18 -29 0 -24 8 -25 31 -4 34 31 39 9 37
-169 l-1 -172 94 1 c154 1 219 43 235 153 8 53 -8 121 -38 164 -36 50 -88 67
-213 66 -60 0 -118 -4 -127 -10z m262 -37 c53 -26 80 -74 80 -141 0 -115 -54
-165 -179 -166 l-76 0 -3 163 -2 162 72 0 c50 0 84 -6 108 -18z"/>
<path d="M3696 1648 c-9 -12 -16 -26 -16 -30 0 -14 31 -8 36 7 4 8 12 15 20
15 11 0 14 -35 16 -177 l3 -178 58 -3 c74 -4 165 13 197 36 50 37 70 80 70
149 0 74 -16 117 -56 155 -44 40 -75 48 -199 48 -106 0 -115 -1 -129 -22z
m274 -26 c51 -27 82 -92 77 -160 -7 -98 -60 -143 -177 -150 l-80 -5 0 167 0
166 73 0 c51 0 83 -5 107 -18z"/>
<path d="M4180 1480 c0 -183 1 -190 20 -190 19 0 20 7 20 190 0 183 -1 190
-20 190 -19 0 -20 -7 -20 -190z"/>
<path d="M4370 1495 c0 -137 -3 -175 -13 -175 -7 0 -18 5 -24 11 -17 17 -35 1
-23 -20 13 -26 36 -32 65 -19 31 14 36 41 34 177 -1 61 0 113 3 117 3 3 63
-62 132 -145 70 -83 129 -151 131 -151 3 0 5 86 5 190 0 161 -2 190 -15 190
-12 0 -15 -26 -17 -150 l-3 -150 -98 118 c-142 171 -152 182 -165 182 -9 0
-12 -47 -12 -175z"/>
<path d="M5221 1644 c-12 -15 -21 -31 -21 -35 0 -16 43 -9 56 9 11 14 13 -10
14 -155 l0 -173 25 0 25 0 0 170 0 170 35 0 c71 0 110 -41 98 -104 -7 -35 -39
-56 -85 -56 -31 0 -38 -4 -38 -20 0 -17 7 -20 50 -20 41 0 56 5 82 29 31 27
33 34 33 91 0 57 -2 64 -33 91 -31 28 -37 29 -126 29 -90 0 -96 -1 -115 -26z"/>
<path d="M5600 1480 l0 -190 110 0 c103 0 110 1 110 20 0 18 -7 20 -85 20
l-85 0 0 170 0 170 -25 0 -25 0 0 -190z"/>
<path d="M6089 1623 c-11 -26 -43 -102 -72 -168 l-52 -120 -34 3 c-28 3 -33 1
-27 -13 3 -9 6 -19 6 -21 0 -3 12 -9 26 -15 38 -14 65 8 88 70 l18 51 77 0 78
0 24 -60 c19 -49 28 -60 47 -60 29 0 31 -7 -62 207 -40 92 -78 169 -85 171 -6
2 -20 -18 -32 -45z m59 -101 c12 -32 22 -61 22 -65 0 -4 -22 -7 -50 -7 -27 0
-50 3 -50 7 0 13 45 123 50 123 3 0 15 -26 28 -58z"/>
<path d="M6430 1500 c0 -107 -4 -170 -10 -170 -5 0 -10 5 -10 10 0 6 -9 10
-20 10 -28 0 -26 -36 4 -55 19 -13 28 -14 50 -4 33 15 36 27 39 171 l2 117
120 -145 c65 -79 125 -144 132 -144 10 0 13 42 13 190 l0 190 -25 0 -25 0 0
-137 -1 -138 -27 30 c-15 17 -67 79 -117 138 -51 60 -98 107 -107 107 -16 0
-18 -15 -18 -170z"/>
<path d="M6900 1500 c0 -93 -2 -170 -5 -170 -3 0 -14 6 -25 12 -14 9 -23 9
-30 2 -15 -15 -3 -39 27 -53 21 -9 30 -9 49 4 30 19 34 36 37 170 l2 109 118
-142 c65 -78 125 -142 133 -142 12 0 14 33 14 190 l0 190 -25 0 -24 0 -3 -139
-3 -140 -93 112 c-128 156 -139 167 -157 167 -13 0 -15 -23 -15 -170z"/>
<path d="M7320 1650 c-11 -11 -20 -27 -20 -35 0 -18 31 -20 48 -3 9 9 12 -25
12 -155 l0 -167 130 0 c123 0 130 1 130 20 0 19 -7 20 -105 20 l-105 0 0 70 0
70 70 0 c63 0 70 2 70 20 0 18 -7 20 -70 20 l-70 0 0 60 0 60 105 0 c98 0 105
1 105 20 0 19 -7 20 -140 20 -127 0 -142 -2 -160 -20z"/>
<path d="M7717 1652 c-10 -10 -17 -26 -17 -35 0 -22 29 -22 46 1 11 14 13 -10
14 -155 l0 -173 25 0 25 0 0 170 0 170 45 0 c81 0 124 -75 75 -128 -15 -16
-32 -22 -65 -22 -38 0 -45 -3 -45 -20 0 -13 9 -22 25 -26 15 -4 45 -31 70 -65
60 -77 73 -89 96 -89 20 0 59 33 59 50 0 14 -47 13 -52 -2 -2 -6 -26 17 -53
52 -35 45 -45 65 -35 68 35 12 60 55 60 104 0 43 -4 54 -34 84 -34 34 -34 34
-128 34 -79 0 -98 -3 -111 -18z"/>
</g>
</svg>
