<?xml version="1.0" standalone="no"?>
<!DOCTYPE svg PUBLIC "-//W3C//DTD SVG 20010904//EN"
 "http://www.w3.org/TR/2001/REC-SVG-20010904/DTD/svg10.dtd">
<svg version="1.0" xmlns="http://www.w3.org/2000/svg"
 width="500.000000pt" height="500.000000pt" viewBox="0 0 500.000000 500.000000"
 preserveAspectRatio="xMidYMid meet">

<g transform="translate(0.000000,500.000000) scale(0.100000,-0.100000)"
fill="#000000" stroke="none">
<path d="M2289 4148 c-8 -28 -6 -45 5 -45 7 0 14 11 14 24 0 13 -4 23 -9 23
-5 0 -9 -1 -10 -2z"/>
<path d="M2400 4110 c0 -5 5 -10 10 -10 6 0 10 5 10 10 0 6 -4 10 -10 10 -5 0
-10 -4 -10 -10z"/>
<path d="M2445 4110 c-3 -6 1 -7 9 -4 18 7 21 14 7 14 -6 0 -13 -4 -16 -10z"/>
<path d="M2253 4095 c0 -8 4 -12 9 -9 4 3 8 9 8 15 0 5 -4 9 -8 9 -5 0 -9 -7
-9 -15z"/>
<path d="M2330 4100 c0 -5 5 -10 10 -10 6 0 10 5 10 10 0 6 -4 10 -10 10 -5 0
-10 -4 -10 -10z"/>
<path d="M1876 4081 c-3 -5 1 -11 9 -15 8 -3 15 -1 15 4 0 13 -18 22 -24 11z"/>
<path d="M2130 4075 c-7 -9 -10 -18 -7 -21 3 -3 10 4 17 15 13 25 8 27 -10 6z"/>
<path d="M2300 4060 c0 -5 5 -10 11 -10 5 0 7 5 4 10 -3 6 -8 10 -11 10 -2 0
-4 -4 -4 -10z"/>
<path d="M1865 4050 c-3 -5 1 -10 10 -10 9 0 13 5 10 10 -3 6 -8 10 -10 10 -2
0 -7 -4 -10 -10z"/>
<path d="M2600 4051 c0 -7 -5 -9 -12 -5 -7 5 -8 3 -3 -5 5 -9 10 -10 18 -2 6
6 8 14 4 18 -4 3 -7 1 -7 -6z"/>
<path d="M1821 4034 c0 -11 3 -14 6 -6 3 7 2 16 -1 19 -3 4 -6 -2 -5 -13z"/>
<path d="M2198 4043 c7 -3 16 -2 19 1 4 3 -2 6 -13 5 -11 0 -14 -3 -6 -6z"/>
<path d="M2635 4031 c-3 -5 -1 -12 5 -16 5 -3 10 1 10 9 0 18 -6 21 -15 7z"/>
<path d="M2026 4015 c-3 -9 -6 -22 -5 -28 0 -7 5 -1 10 12 5 13 8 26 5 28 -2
2 -6 -3 -10 -12z"/>
<path d="M1860 3990 c0 -5 5 -10 11 -10 5 0 7 5 4 10 -3 6 -8 10 -11 10 -2 0
-4 -4 -4 -10z"/>
<path d="M2120 3973 c0 -8 5 -13 12 -11 18 6 21 25 3 25 -8 0 -15 -7 -15 -14z"/>
<path d="M2611 3981 c-8 -6 -9 -11 -3 -15 6 -3 14 -1 17 5 9 14 2 20 -14 10z"/>
<path d="M2410 3965 c0 -9 6 -12 17 -8 12 5 14 3 8 -8 -6 -11 -5 -11 5 -2 7 6
9 16 6 22 -10 16 -36 13 -36 -4z"/>
<path d="M1950 3944 c0 -8 5 -12 10 -9 6 4 8 11 5 16 -9 14 -15 11 -15 -7z"/>
<path d="M2380 3930 c0 -5 7 -10 16 -10 8 0 12 5 9 10 -3 6 -10 10 -16 10 -5
0 -9 -4 -9 -10z"/>
<path d="M2445 3920 c-3 -5 -2 -10 4 -10 5 0 13 5 16 10 3 6 2 10 -4 10 -5 0
-13 -4 -16 -10z"/>
<path d="M1898 3913 c7 -3 16 -2 19 1 4 3 -2 6 -13 5 -11 0 -14 -3 -6 -6z"/>
<path d="M1930 3905 c0 -8 5 -15 10 -15 6 0 10 5 10 11 0 5 5 7 10 4 6 -3 10
-1 10 4 0 6 -9 11 -20 11 -11 0 -20 -7 -20 -15z"/>
<path d="M2160 3909 c0 -5 5 -7 10 -4 6 3 10 8 10 11 0 2 -4 4 -10 4 -5 0 -10
-5 -10 -11z"/>
<path d="M2315 3899 c-10 -15 3 -25 16 -12 7 7 7 13 1 17 -6 3 -14 1 -17 -5z"/>
<path d="M1898 3893 c7 -3 16 -2 19 1 4 3 -2 6 -13 5 -11 0 -14 -3 -6 -6z"/>
<path d="M1612 3865 c0 -16 2 -22 5 -12 2 9 2 23 0 30 -3 6 -5 -1 -5 -18z"/>
<path d="M1735 3879 c-9 -14 -2 -20 14 -10 8 6 9 11 3 15 -6 3 -14 1 -17 -5z"/>
<path d="M1988 3873 c7 -3 16 -2 19 1 4 3 -2 6 -13 5 -11 0 -14 -3 -6 -6z"/>
<path d="M2274 3871 c4 -5 1 -12 -4 -14 -6 -3 -5 -4 2 -3 15 3 23 26 8 26 -6
0 -9 -4 -6 -9z"/>
<path d="M2690 3872 c0 -15 39 -22 47 -9 3 7 3 9 -2 5 -4 -4 -16 -3 -26 3 -11
5 -19 6 -19 1z"/>
<path d="M2317 3854 c3 -8 11 -13 19 -10 7 3 15 0 18 -7 2 -7 5 -5 5 4 1 9 -6
20 -15 23 -26 10 -34 7 -27 -10z"/>
<path d="M1925 3840 c3 -5 8 -10 11 -10 2 0 4 5 4 10 0 6 -5 10 -11 10 -5 0
-7 -4 -4 -10z"/>
<path d="M2520 3840 c0 -5 5 -10 11 -10 5 0 7 5 4 10 -3 6 -8 10 -11 10 -2 0
-4 -4 -4 -10z"/>
<path d="M2125 3830 c-3 -6 1 -7 9 -4 18 7 21 14 7 14 -6 0 -13 -4 -16 -10z"/>
<path d="M2275 3820 c-3 -5 1 -10 9 -10 9 0 16 5 16 10 0 6 -4 10 -9 10 -6 0
-13 -4 -16 -10z"/>
<path d="M1755 3810 c-3 -6 1 -7 9 -4 18 7 21 14 7 14 -6 0 -13 -4 -16 -10z"/>
<path d="M2491 3794 c0 -11 3 -14 6 -6 3 7 2 16 -1 19 -3 4 -6 -2 -5 -13z"/>
<path d="M2520 3794 c0 -9 5 -14 12 -12 18 6 21 28 4 28 -9 0 -16 -7 -16 -16z"/>
<path d="M1888 3793 c7 -3 16 -2 19 1 4 3 -2 6 -13 5 -11 0 -14 -3 -6 -6z"/>
<path d="M2560 3789 c0 -5 5 -7 10 -4 6 3 10 8 10 11 0 2 -4 4 -10 4 -5 0 -10
-5 -10 -11z"/>
<path d="M1700 3779 c0 -5 5 -7 10 -4 6 3 10 8 10 11 0 2 -4 4 -10 4 -5 0 -10
-5 -10 -11z"/>
<path d="M2399 3756 c14 -14 27 -26 29 -26 10 0 -26 44 -39 48 -8 3 -3 -7 10
-22z"/>
<path d="M2510 3760 c0 -5 7 -10 15 -10 8 0 15 5 15 10 0 6 -7 10 -15 10 -8 0
-15 -4 -15 -10z"/>
<path d="M1437 3732 c-3 -4 1 -13 9 -19 7 -7 15 -9 17 -5 3 4 -1 13 -9 19 -7
7 -15 9 -17 5z"/>
<path d="M1830 3730 c0 -5 5 -10 10 -10 6 0 10 5 10 10 0 6 -4 10 -10 10 -5 0
-10 -4 -10 -10z"/>
<path d="M1830 3701 c0 -6 5 -13 10 -16 6 -3 10 1 10 9 0 9 -4 16 -10 16 -5 0
-10 -4 -10 -9z"/>
<path d="M1437 3683 c-12 -11 -8 -23 8 -23 8 0 15 7 15 15 0 16 -12 20 -23 8z"/>
<path d="M1634 3681 c4 -6 2 -11 -3 -11 -6 0 -3 -9 6 -20 10 -11 23 -20 30
-20 22 0 14 27 -13 45 -15 9 -23 12 -20 6z"/>
<path d="M1684 3679 c-3 -6 -1 -16 5 -22 6 -6 11 -9 12 -6 0 2 2 12 4 22 4 19
-10 23 -21 6z"/>
<path d="M1865 3680 c3 -5 8 -10 11 -10 2 0 4 5 4 10 0 6 -5 10 -11 10 -5 0
-7 -4 -4 -10z"/>
<path d="M1810 3650 c0 -5 5 -10 10 -10 6 0 10 5 10 10 0 6 -4 10 -10 10 -5 0
-10 -4 -10 -10z"/>
<path d="M1616 3611 c-3 -5 1 -11 9 -15 9 -3 15 0 15 9 0 16 -16 20 -24 6z"/>
<path d="M1680 3610 c0 -6 -4 -8 -10 -5 -5 3 -10 2 -10 -4 0 -5 9 -9 20 -8 21
1 26 12 10 22 -5 3 -10 1 -10 -5z"/>
<path d="M1400 3552 c-8 -9 -21 -27 -28 -40 -11 -22 -10 -23 3 -12 8 7 15 19
15 27 0 8 4 12 8 9 4 -2 13 4 20 15 15 23 3 25 -18 1z"/>
<path d="M1638 3503 c6 -2 18 -2 25 0 6 3 1 5 -13 5 -14 0 -19 -2 -12 -5z"/>
<path d="M1647 3416 c-3 -8 -2 -18 3 -21 13 -8 24 15 12 27 -6 6 -11 4 -15 -6z"/>
<path d="M1710 3421 c0 -5 5 -13 10 -16 6 -3 10 -2 10 4 0 5 -4 13 -10 16 -5
3 -10 2 -10 -4z"/>
<path d="M1680 3380 c0 -13 5 -20 13 -17 6 2 12 10 12 17 0 7 -6 15 -12 18 -8
2 -13 -5 -13 -18z"/>
<path d="M1426 3369 c3 -6 0 -16 -7 -21 -10 -7 -8 -8 9 -5 14 3 22 0 22 -9 0
-8 6 -11 15 -8 13 5 11 11 -10 30 -28 26 -41 31 -29 13z"/>
<path d="M1497 3363 c-10 -9 -9 -23 1 -23 5 0 9 7 9 15 0 17 -1 18 -10 8z"/>
<path d="M1634 3338 c-4 -7 -3 -8 4 -4 7 4 12 2 12 -4 0 -6 5 -8 10 -5 11 7 4
25 -10 25 -5 0 -12 -5 -16 -12z"/>
<path d="M1250 3295 c-10 -12 -10 -15 4 -15 9 0 16 7 16 15 0 8 -2 15 -4 15
-2 0 -9 -7 -16 -15z"/>
<path d="M1415 3300 c-3 -5 1 -10 9 -10 9 0 16 5 16 10 0 6 -4 10 -9 10 -6 0
-13 -4 -16 -10z"/>
<path d="M1475 3289 c-4 -6 -5 -12 -2 -15 2 -3 7 2 10 11 7 17 1 20 -8 4z"/>
<path d="M1230 3260 c0 -5 5 -10 10 -10 6 0 10 5 10 10 0 6 -4 10 -10 10 -5 0
-10 -4 -10 -10z"/>
<path d="M1288 3253 c7 -3 16 -2 19 1 4 3 -2 6 -13 5 -11 0 -14 -3 -6 -6z"/>
<path d="M1225 3210 c-3 -5 1 -10 9 -10 9 0 16 5 16 10 0 6 -4 10 -9 10 -6 0
-13 -4 -16 -10z"/>
<path d="M1436 3213 c-11 -11 -7 -20 9 -20 8 0 15 4 15 8 0 11 -16 20 -24 12z"/>
<path d="M1396 3185 c-3 -8 -1 -15 4 -15 6 0 10 7 10 15 0 8 -2 15 -4 15 -2 0
-6 -7 -10 -15z"/>
<path d="M1425 3171 c-7 -12 12 -24 25 -16 11 7 4 25 -10 25 -5 0 -11 -4 -15
-9z"/>
<path d="M1475 3149 c-4 -6 -5 -12 -2 -15 2 -3 7 2 10 11 7 17 1 20 -8 4z"/>
<path d="M1416 3131 c-4 -7 -5 -15 -2 -18 9 -9 19 4 14 18 -4 11 -6 11 -12 0z"/>
<path d="M1328 3073 c7 -3 16 -2 19 1 4 3 -2 6 -13 5 -11 0 -14 -3 -6 -6z"/>
<path d="M1021 2949 c-8 -24 -20 -62 -27 -84 -45 -143 -69 -358 -60 -545 11
-259 24 -245 23 25 -2 228 0 258 21 338 12 48 21 91 20 95 -5 17 14 82 22 77
4 -3 13 9 19 25 6 18 6 28 1 25 -6 -4 -10 -13 -10 -22 0 -9 -2 -14 -5 -11 -3
3 -1 26 6 51 15 61 7 82 -10 26z"/>
<path d="M1156 2971 c-3 -4 6 -6 19 -3 14 2 25 6 25 8 0 8 -39 4 -44 -5z"/>
<path d="M1038 2833 c6 -2 18 -2 25 0 6 3 1 5 -13 5 -14 0 -19 -2 -12 -5z"/>
<path d="M4057 2650 c4 -69 8 -197 7 -285 0 -139 -4 -174 -28 -270 -15 -60
-38 -135 -52 -165 -14 -30 -27 -70 -29 -90 l-5 -35 19 40 19 40 -5 -45 c-3
-25 -3 -43 0 -40 14 13 77 258 91 361 22 149 22 374 1 504 -8 54 -18 101 -21
104 -3 3 -2 -50 3 -119z"/>
<path d="M2014 2630 c-32 -13 -64 -59 -64 -92 0 -67 47 -109 118 -107 l37 2
-42 6 c-51 9 -71 24 -81 65 -17 62 21 126 75 126 13 0 37 -7 53 -15 17 -9 30
-11 30 -6 0 11 -55 31 -84 30 -12 0 -31 -4 -42 -9z"/>
<path d="M3276 2632 c-3 -6 -1 -14 5 -17 15 -10 25 3 12 16 -7 7 -13 7 -17 1z"/>
<path d="M1350 2530 c0 -60 4 -100 10 -100 6 0 10 40 10 100 0 60 -4 100 -10
100 -6 0 -10 -40 -10 -100z"/>
<path d="M2592 2528 l2 -103 5 85 6 85 37 -70 c56 -106 53 -104 77 -57 12 23
19 42 17 42 -3 0 -12 -12 -19 -27 l-14 -26 -47 86 c-26 48 -52 87 -57 87 -5 0
-8 -46 -7 -102z"/>
<path d="M2792 2618 c-14 -19 -53 -98 -47 -98 2 0 13 17 24 38 l20 37 1 -82
c0 -67 3 -83 15 -83 12 0 15 18 15 100 0 96 -6 115 -28 88z"/>
<path d="M3630 2595 c0 -32 -2 -35 -19 -25 -29 15 -49 12 -71 -10 -26 -26 -27
-90 -2 -113 22 -20 63 -22 80 -5 9 9 12 9 12 0 0 -7 5 -12 10 -12 6 0 10 40
10 100 0 60 -4 100 -10 100 -5 0 -10 -16 -10 -35z m-16 -41 c30 -29 14 -114
-21 -114 -46 0 -68 64 -37 108 18 26 37 28 58 6z"/>
<path d="M1610 2601 c0 -11 -6 -22 -12 -24 -10 -4 -10 -6 0 -6 8 -1 12 -19 12
-55 0 -36 5 -60 16 -70 18 -18 40 -21 49 -6 4 6 -4 9 -17 7 -22 -2 -23 2 -26
60 -3 57 -1 62 20 66 l23 4 -22 2 c-16 1 -23 7 -23 21 0 11 -4 20 -10 20 -5 0
-10 -9 -10 -19z"/>
<path d="M2380 2600 c0 -12 -7 -20 -17 -20 -16 0 -16 -1 0 -12 11 -9 17 -31
19 -67 3 -58 26 -87 49 -64 9 9 7 11 -10 6 -20 -5 -21 -2 -21 60 0 54 3 66 18
70 16 4 16 5 0 6 -11 1 -18 9 -18 21 0 11 -4 20 -10 20 -5 0 -10 -9 -10 -20z"/>
<path d="M1445 2555 c-14 -13 -25 -35 -25 -48 0 -37 36 -77 70 -77 36 0 60 9
60 23 0 7 -4 7 -12 -1 -7 -7 -24 -12 -38 -12 -30 0 -50 17 -50 42 0 15 9 18
55 18 43 0 55 3 55 15 0 23 -46 65 -70 65 -11 0 -32 -11 -45 -25z m72 3 c6 -7
13 -21 16 -30 5 -15 0 -18 -38 -18 -37 0 -45 3 -45 18 0 36 46 57 67 30z"/>
<path d="M1716 2564 c-27 -27 -13 -53 36 -70 22 -7 33 -17 33 -30 0 -26 -41
-31 -66 -8 -10 9 -19 13 -19 8 0 -19 24 -34 55 -34 69 0 75 52 10 81 -46 20
-58 45 -29 56 9 3 25 1 35 -5 27 -17 38 -14 15 3 -26 19 -51 19 -70 -1z"/>
<path d="M2210 2560 c-12 -12 -20 -33 -20 -55 0 -63 67 -98 116 -59 18 15 18
15 -3 5 -31 -15 -59 -14 -77 5 -31 31 -20 44 39 44 48 0 55 2 55 20 0 28 -35
60 -65 60 -14 0 -34 -9 -45 -20z m80 -9 c18 -34 11 -41 -35 -41 -25 0 -45 5
-45 11 0 25 22 49 45 49 14 0 29 -8 35 -19z"/>
<path d="M2894 2565 c-23 -18 -11 -20 16 -3 25 16 54 1 58 -31 3 -19 1 -20
-22 -10 -50 23 -104 -46 -63 -80 8 -6 35 -10 60 -9 l47 2 0 57 c0 63 -16 89
-54 89 -12 0 -31 -7 -42 -15z m60 -58 c36 -26 -4 -84 -41 -61 -25 16 -28 45
-7 61 10 7 21 13 24 13 3 0 14 -6 24 -13z"/>
<path d="M3040 2505 c0 -91 17 -100 22 -12 4 67 1 87 -13 87 -5 0 -9 -34 -9
-75z"/>
<path d="M3075 2570 c-4 -6 5 -10 20 -10 15 0 24 4 20 10 -3 6 -12 10 -20 10
-8 0 -17 -4 -20 -10z"/>
<path d="M3157 2573 c-11 -10 -8 -143 3 -143 6 0 10 21 10 46 0 55 14 84 40
84 11 0 20 5 20 10 0 14 -24 12 -38 -2 -10 -10 -14 -10 -21 0 -4 7 -10 9 -14
5z"/>
<path d="M3276 2572 c-11 -18 -1 -142 12 -142 8 0 12 21 12 69 0 64 -10 95
-24 73z"/>
<path d="M3376 2559 c-33 -26 -36 -79 -6 -109 25 -25 82 -27 101 -2 11 14 11
15 -1 5 -23 -21 -67 -16 -84 9 -24 34 -20 38 39 38 52 0 55 1 55 24 0 26 -33
56 -61 56 -9 0 -28 -9 -43 -21z m72 -1 c7 -7 12 -20 12 -30 0 -15 -8 -18 -45
-18 -49 0 -53 5 -29 38 17 24 43 29 62 10z"/>
<path d="M2113 2513 c20 -5 25 -63 5 -63 -9 0 -8 -4 2 -10 26 -17 30 -11 30
35 0 43 -1 45 -27 44 -17 -1 -21 -3 -10 -6z"/>
<path d="M2427 2154 c12 -3 24 -13 27 -22 3 -12 4 -11 3 3 -2 14 -10 21 -27
22 -21 1 -21 1 -3 -3z"/>
<path d="M2876 2145 c-8 -22 -8 -27 3 -21 8 5 37 -71 33 -86 -1 -5 4 -8 12 -8
12 0 9 13 -11 63 -30 73 -29 72 -37 52z"/>
<path d="M1483 2089 c13 -41 22 -57 28 -48 4 7 5 16 0 19 -4 3 -13 24 -19 48
-7 23 -16 42 -21 42 -4 0 1 -27 12 -61z"/>
<path d="M1534 2130 c0 -11 3 -20 7 -20 3 0 11 -19 18 -41 10 -32 15 -39 24
-30 8 8 8 14 1 19 -5 4 -16 26 -22 50 -13 44 -28 56 -28 22z"/>
<path d="M1680 2092 l-5 -62 43 0 c34 0 42 3 41 18 0 10 -3 12 -6 5 -2 -7 -18
-13 -34 -13 -25 0 -29 4 -29 26 0 23 3 26 25 22 16 -3 25 -1 25 7 0 8 -9 10
-24 8 -21 -4 -25 -1 -28 23 -2 16 -6 1 -8 -34z"/>
<path d="M1815 2090 l0 -60 30 1 c24 1 25 3 8 6 -21 4 -23 10 -23 59 0 30 -3
54 -7 54 -5 0 -8 -27 -8 -60z"/>
<path d="M1884 2134 c19 -18 20 -47 4 -77 -10 -20 -10 -21 5 -8 29 24 17 101
-16 101 -5 0 -1 -7 7 -16z"/>
<path d="M1968 2090 l-3 -60 35 1 c23 1 28 3 13 6 -21 4 -23 10 -23 59 0 73
-17 69 -22 -6z"/>
<path d="M2046 2125 c13 -20 14 -31 5 -56 -9 -27 -9 -30 4 -19 18 15 20 71 3
88 -21 21 -29 13 -12 -13z"/>
<path d="M2128 2090 c-2 -48 0 -60 12 -60 12 0 14 12 12 60 -2 33 -7 60 -12
60 -5 0 -10 -27 -12 -60z"/>
<path d="M2256 2090 c26 -33 49 -60 50 -60 2 0 3 28 2 63 -1 57 -2 58 -5 14
l-4 -48 -35 45 c-19 25 -40 46 -45 46 -6 0 11 -27 37 -60z"/>
<path d="M2376 2128 c-9 -12 -16 -29 -16 -38 0 -24 29 -60 48 -60 13 0 12 3
-6 16 -24 16 -29 53 -12 85 14 26 5 24 -14 -3z"/>
<path d="M2595 2090 c0 -37 4 -60 11 -60 6 0 9 10 7 24 -4 17 0 25 14 29 16 4
16 5 1 6 -13 1 -18 10 -18 31 0 17 -3 30 -7 30 -5 0 -8 -27 -8 -60z"/>
<path d="M2648 2138 c7 -9 9 -24 6 -34 -5 -15 -4 -16 5 -8 16 15 11 46 -9 52
-12 4 -13 3 -2 -10z"/>
<path d="M2725 2090 l0 -60 38 0 c29 0 37 4 36 18 0 10 -3 12 -6 5 -2 -7 -16
-13 -29 -13 -22 0 -24 4 -24 55 0 30 -3 55 -7 55 -5 0 -8 -27 -8 -60z"/>
<path d="M3036 2090 c26 -33 49 -60 50 -60 2 0 3 28 2 63 -1 57 -2 58 -5 14
l-4 -48 -35 45 c-19 25 -40 46 -45 46 -6 0 11 -27 37 -60z"/>
<path d="M3196 2090 c26 -33 49 -60 50 -60 2 0 3 28 2 63 -1 57 -2 58 -5 14
l-4 -48 -35 45 c-19 25 -40 46 -45 46 -6 0 11 -27 37 -60z"/>
<path d="M3315 2090 l0 -60 40 2 c37 1 37 2 8 5 -27 4 -33 9 -33 28 0 17 7 25
23 28 l22 4 -22 2 c-17 1 -23 7 -23 26 0 14 -3 25 -7 25 -5 0 -8 -27 -8 -60z"/>
<path d="M3448 2090 c-2 -48 0 -60 12 -60 12 0 14 12 12 60 -2 33 -7 60 -12
60 -5 0 -10 -27 -12 -60z"/>
<path d="M3507 2126 c3 -13 0 -27 -6 -30 -13 -8 13 -66 29 -66 6 0 3 11 -6 25
-14 22 -15 30 -4 49 7 13 9 29 6 35 -12 19 -23 12 -19 -13z"/>
<path d="M1601 2124 c0 -11 3 -14 6 -6 3 7 2 16 -1 19 -3 4 -6 -2 -5 -13z"/>
<path d="M2861 2103 c0 -6 -4 -20 -7 -30 -5 -14 -4 -15 5 -7 7 7 11 20 8 30
-3 11 -5 14 -6 7z"/>
<path d="M2447 2064 c3 -9 0 -20 -8 -26 -12 -8 -11 -9 1 -5 17 4 27 47 11 47
-6 0 -8 -7 -4 -16z"/>
<path d="M2835 2040 c-3 -5 1 -10 10 -10 9 0 13 5 10 10 -3 6 -8 10 -10 10 -2
0 -7 -4 -10 -10z"/>
<path d="M3938 1923 c6 -2 18 -2 25 0 6 3 1 5 -13 5 -14 0 -19 -2 -12 -5z"/>
<path d="M3805 1780 c-13 -6 -15 -9 -5 -9 8 0 22 4 30 9 18 12 2 12 -25 0z"/>
<path d="M3655 1680 l-30 -8 27 -1 c15 0 30 4 33 9 3 6 5 9 3 9 -2 -1 -16 -5
-33 -9z"/>
<path d="M3570 1630 c0 -5 4 -10 9 -10 6 0 13 5 16 10 3 6 -1 10 -9 10 -9 0
-16 -4 -16 -10z"/>
<path d="M3520 1604 c0 -8 5 -12 10 -9 6 4 8 11 5 16 -9 14 -15 11 -15 -7z"/>
<path d="M3551 1587 c-1 -21 21 -18 27 4 3 12 2 12 -6 0 -8 -11 -10 -11 -15 0
-4 10 -6 8 -6 -4z"/>
<path d="M3595 1570 c-3 -5 -1 -10 4 -10 6 0 11 5 11 10 0 6 -2 10 -4 10 -3 0
-8 -4 -11 -10z"/>
<path d="M3546 1553 c-11 -11 -7 -20 9 -20 8 0 15 4 15 8 0 11 -16 20 -24 12z"/>
<path d="M3760 1549 c0 -5 5 -7 10 -4 6 3 10 8 10 11 0 2 -4 4 -10 4 -5 0 -10
-5 -10 -11z"/>
<path d="M3707 1516 c-6 -15 1 -26 15 -26 11 0 10 27 -1 34 -5 3 -11 0 -14 -8z"/>
<path d="M3765 1500 c-3 -5 -1 -10 4 -10 6 0 11 5 11 10 0 6 -2 10 -4 10 -3 0
-8 -4 -11 -10z"/>
<path d="M3797 1504 c-8 -8 1 -24 12 -24 4 0 8 7 8 15 0 16 -9 20 -20 9z"/>
<path d="M3526 1463 c-6 -14 -5 -15 5 -6 7 7 10 15 7 18 -3 3 -9 -2 -12 -12z"/>
<path d="M3747 1473 c-11 -10 -8 -20 8 -27 10 -4 15 1 15 14 0 20 -11 26 -23
13z"/>
<path d="M3570 1455 c0 -16 16 -20 24 -6 3 5 -1 11 -9 15 -9 3 -15 0 -15 -9z"/>
<path d="M3551 1432 c0 -7 -5 -10 -11 -7 -25 15 -7 -14 22 -35 22 -17 30 -19
25 -7 -3 9 -1 18 6 21 7 3 2 3 -10 0 -17 -4 -22 0 -26 18 -2 13 -5 17 -6 10z"/>
<path d="M3300 1416 c0 -9 -4 -14 -10 -11 -5 3 -10 1 -10 -4 0 -6 5 -11 10
-11 13 0 25 28 16 37 -3 4 -6 -1 -6 -11z"/>
<path d="M3343 1407 c5 -15 29 -16 34 -2 2 6 -6 11 -18 12 -12 1 -19 -3 -16
-10z"/>
<path d="M3505 1400 c3 -5 8 -10 11 -10 2 0 4 5 4 10 0 6 -5 10 -11 10 -5 0
-7 -4 -4 -10z"/>
<path d="M3300 1365 c0 -10 7 -15 18 -13 21 4 19 22 -2 26 -10 2 -16 -3 -16
-13z"/>
<path d="M3340 1341 c0 -17 18 -21 24 -6 3 9 0 15 -9 15 -8 0 -15 -4 -15 -9z"/>
<path d="M3700 1344 c0 -5 7 -18 15 -28 8 -11 15 -16 15 -10 0 5 -7 18 -15 28
-8 11 -15 16 -15 10z"/>
<path d="M3286 1327 c3 -10 9 -15 12 -12 3 3 0 11 -7 18 -10 9 -11 8 -5 -6z"/>
<path d="M3630 1266 c0 -9 5 -16 10 -16 6 0 10 4 10 9 0 6 -4 13 -10 16 -5 3
-10 -1 -10 -9z"/>
<path d="M3605 1229 c-4 -6 -4 -13 -1 -16 3 -3 2 -11 -4 -17 -5 -7 -5 -17 0
-26 8 -12 10 -11 10 6 0 12 7 24 15 28 8 3 15 12 15 21 0 17 -25 20 -35 4z"/>
<path d="M3575 1220 c3 -5 8 -10 11 -10 2 0 4 5 4 10 0 6 -5 10 -11 10 -5 0
-7 -4 -4 -10z"/>
<path d="M3657 1223 c-10 -9 -9 -23 1 -23 5 0 9 7 9 15 0 17 -1 18 -10 8z"/>
<path d="M3555 1160 c10 -11 20 -20 23 -20 3 0 -3 9 -13 20 -10 11 -20 20 -23
20 -3 0 3 -9 13 -20z"/>
<path d="M3385 1140 c-3 -5 -1 -10 4 -10 6 0 11 5 11 10 0 6 -2 10 -4 10 -3 0
-8 -4 -11 -10z"/>
<path d="M3343 1101 c-3 -12 -11 -17 -19 -14 -8 3 -14 -1 -14 -11 0 -19 4 -20
31 -3 17 10 23 10 26 0 3 -7 9 -13 14 -13 6 0 8 4 5 9 -4 5 -3 11 1 14 5 2 2
2 -4 1 -7 -2 -13 5 -13 16 0 26 -20 26 -27 1z"/>
<path d="M3195 1101 c-3 -5 -1 -12 5 -16 5 -3 10 1 10 9 0 18 -6 21 -15 7z"/>
<path d="M3526 1075 c-3 -8 -1 -15 4 -15 6 0 10 7 10 15 0 8 -2 15 -4 15 -2 0
-6 -7 -10 -15z"/>
<path d="M3560 1073 c0 -7 4 -13 9 -13 5 0 11 6 14 13 3 8 -1 14 -9 14 -8 0
-14 -6 -14 -14z"/>
<path d="M3140 1060 c0 -5 5 -10 11 -10 5 0 7 5 4 10 -3 6 -8 10 -11 10 -2 0
-4 -4 -4 -10z"/>
<path d="M3557 1042 c-3 -4 1 -13 9 -19 7 -7 15 -9 17 -5 3 4 -1 13 -9 19 -7
7 -15 9 -17 5z"/>
<path d="M3170 1010 c0 -5 5 -10 10 -10 6 0 10 5 10 10 0 6 -4 10 -10 10 -5 0
-10 -4 -10 -10z"/>
<path d="M2605 970 c10 -11 23 -20 28 -20 6 0 2 9 -8 20 -10 11 -23 20 -28 20
-6 0 -2 -9 8 -20z"/>
<path d="M2482 969 c2 -6 8 -10 13 -10 5 0 11 4 13 10 2 6 -4 11 -13 11 -9 0
-15 -5 -13 -11z"/>
<path d="M3300 970 c0 -5 5 -10 10 -10 6 0 10 5 10 10 0 6 -4 10 -10 10 -5 0
-10 -4 -10 -10z"/>
<path d="M3336 954 c-4 -10 -1 -14 6 -12 15 5 23 28 10 28 -5 0 -13 -7 -16
-16z"/>
<path d="M3118 943 c7 -3 16 -2 19 1 4 3 -2 6 -13 5 -11 0 -14 -3 -6 -6z"/>
<path d="M2476 932 c-3 -5 1 -9 9 -9 8 0 15 4 15 9 0 4 -4 8 -9 8 -6 0 -12 -4
-15 -8z"/>
<path d="M2520 930 c0 -5 5 -10 11 -10 5 0 7 5 4 10 -3 6 -8 10 -11 10 -2 0
-4 -4 -4 -10z"/>
<path d="M3255 930 c-3 -5 -1 -10 4 -10 6 0 11 5 11 10 0 6 -2 10 -4 10 -3 0
-8 -4 -11 -10z"/>
<path d="M3286 925 c-3 -9 1 -18 10 -22 19 -7 28 2 21 22 -8 19 -23 19 -31 0z"/>
<path d="M2875 900 c-3 -6 1 -7 9 -4 18 7 21 14 7 14 -6 0 -13 -4 -16 -10z"/>
<path d="M3080 896 c0 -8 5 -18 10 -21 6 -3 10 1 10 9 0 8 -4 18 -10 21 -5 3
-10 -1 -10 -9z"/>
<path d="M3402 870 c0 -19 2 -27 5 -17 2 9 2 25 0 35 -3 9 -5 1 -5 -18z"/>
<path d="M3266 881 c-3 -5 1 -11 9 -15 9 -3 15 0 15 9 0 16 -16 20 -24 6z"/>
<path d="M2670 870 c20 -13 43 -13 35 0 -3 6 -16 10 -28 10 -18 0 -19 -2 -7
-10z"/>
<path d="M2310 861 c0 -6 5 -13 10 -16 6 -3 10 1 10 9 0 9 -4 16 -10 16 -5 0
-10 -4 -10 -9z"/>
<path d="M3018 863 c6 -2 9 -10 5 -16 -4 -6 0 -8 10 -4 11 4 17 1 17 -8 0 -8
5 -15 11 -15 5 0 7 -4 4 -10 -3 -5 -3 -16 1 -22 6 -9 10 -5 15 12 13 48 11 63
-11 57 -11 -3 -23 -1 -26 4 -3 5 -13 9 -22 8 -11 0 -12 -2 -4 -6z m62 -23 c0
-5 -4 -10 -10 -10 -5 0 -10 5 -10 10 0 6 5 10 10 10 6 0 10 -4 10 -10z"/>
<path d="M2690 841 c0 -6 5 -13 10 -16 6 -3 10 1 10 9 0 9 -4 16 -10 16 -5 0
-10 -4 -10 -9z"/>
<path d="M3118 843 c7 -3 16 -2 19 1 4 3 -2 6 -13 5 -11 0 -14 -3 -6 -6z"/>
<path d="M2320 820 c0 -5 4 -10 9 -10 6 0 13 5 16 10 3 6 -1 10 -9 10 -9 0
-16 -4 -16 -10z"/>
<path d="M2567 813 c-4 -6 -3 -14 3 -18 5 -3 10 -15 10 -27 0 -14 -5 -18 -16
-14 -8 3 -12 2 -9 -4 8 -12 42 -7 58 9 9 10 8 11 -7 5 -16 -6 -18 -4 -13 9 3
9 2 17 -3 17 -5 0 -10 8 -12 18 -2 12 -6 13 -11 5z"/>
<path d="M2900 804 c0 -8 5 -12 10 -9 6 4 8 11 5 16 -9 14 -15 11 -15 -7z"/>
<path d="M2620 800 c0 -5 5 -10 10 -10 6 0 10 5 10 10 0 6 -4 10 -10 10 -5 0
-10 -4 -10 -10z"/>
<path d="M2830 780 c0 -5 5 -10 11 -10 5 0 7 5 4 10 -3 6 -8 10 -11 10 -2 0
-4 -4 -4 -10z"/>
<path d="M2880 760 c0 -5 7 -10 16 -10 8 0 12 5 9 10 -3 6 -10 10 -16 10 -5 0
-9 -4 -9 -10z"/>
<path d="M2400 750 c0 -5 5 -10 10 -10 6 0 10 5 10 10 0 6 -4 10 -10 10 -5 0
-10 -4 -10 -10z"/>
<path d="M2457 743 c-10 -9 -9 -23 1 -23 5 0 9 7 9 15 0 17 -1 18 -10 8z"/>
<path d="M2610 730 c0 -5 5 -10 10 -10 6 0 10 5 10 10 0 6 -4 10 -10 10 -5 0
-10 -4 -10 -10z"/>
<path d="M2991 724 c0 -11 3 -14 6 -6 3 7 2 16 -1 19 -3 4 -6 -2 -5 -13z"/>
<path d="M2380 705 c0 -8 4 -15 10 -15 5 0 7 7 4 15 -4 8 -8 15 -10 15 -2 0
-4 -7 -4 -15z"/>
<path d="M2415 710 c3 -5 8 -10 11 -10 2 0 4 5 4 10 0 6 -5 10 -11 10 -5 0 -7
-4 -4 -10z"/>
<path d="M3201 704 c0 -11 3 -14 6 -6 3 7 2 16 -1 19 -3 4 -6 -2 -5 -13z"/>
<path d="M2425 679 c-4 -6 -4 -13 -1 -16 3 -4 6 -1 6 6 0 7 5 9 12 5 7 -4 8
-3 4 4 -9 15 -13 15 -21 1z"/>
<path d="M2886 662 l-19 -27 24 22 c12 12 21 24 18 27 -2 2 -13 -8 -23 -22z"/>
<path d="M3130 671 c0 -6 5 -13 10 -16 6 -3 10 1 10 9 0 9 -4 16 -10 16 -5 0
-10 -4 -10 -9z"/>
<path d="M2722 610 c1 -16 5 -30 10 -30 4 0 8 3 8 8 0 4 3 17 6 30 5 16 2 22
-9 22 -11 0 -15 -9 -15 -30z"/>
<path d="M2610 614 c0 -8 5 -12 10 -9 6 4 8 11 5 16 -9 14 -15 11 -15 -7z"/>
<path d="M2558 613 c7 -3 16 -2 19 1 4 3 -2 6 -13 5 -11 0 -14 -3 -6 -6z"/>
</g>
</svg>
